<?xml version="1.0" encoding="utf-8"?>
<!-- Generator: Adobe Illustrator 25.1.0, SVG Export Plug-In . SVG Version: 6.00 Build 0)  -->
<svg version="1.1" id="Capa_1" xmlns="http://www.w3.org/2000/svg" xmlns:xlink="http://www.w3.org/1999/xlink" x="0px" y="0px"
	 viewBox="0 0 96 96" style="enable-background:new 0 0 96 96;" xml:space="preserve">
<g>
	<g>
		<path d="M10.75,43.45v-14.3h2.67v0.96h-1.56v12.38h1.56v0.96H10.75z"/>
		<path d="M16.44,29.3v12.14h-1.38V29.3H16.44z"/>
		<path d="M18.64,41.43V29.3h1.3l2.23,5.69c0.51,1.3,1.13,2.91,1.55,4.22h0.04c-0.11-1.91-0.17-3.47-0.17-5.57V29.3h1.25v12.14
			h-1.31l-2.31-5.84c-0.49-1.23-1.01-2.6-1.44-4.12h-0.04c0.1,1.62,0.14,3.16,0.14,5.75v4.2H18.64z"/>
		<path d="M32.98,41.12c-0.51,0.22-1.39,0.42-2.15,0.42c-1.06,0-2.06-0.29-2.87-1.18c-0.88-0.94-1.47-2.61-1.46-4.83
			c0.02-4.73,2.44-6.34,4.57-6.34c0.76,0,1.36,0.15,1.74,0.34l-0.31,1.2c-0.32-0.17-0.75-0.3-1.4-0.3c-1.51,0-3.16,1.21-3.16,4.97
			c0,3.74,1.42,4.94,2.89,4.94c0.46,0,0.73-0.08,0.85-0.14v-3.96h-1.56V35.1h2.87V41.12z"/>
		<path d="M34.86,29.48c0.58-0.17,1.31-0.23,2-0.23c1.19,0,2.09,0.25,2.73,0.87c0.6,0.6,0.86,1.41,0.86,2.37
			c0,1.55-0.73,2.56-1.95,3.13v0.04c0.89,0.27,1.36,1.13,1.63,2.72c0.28,1.66,0.53,2.69,0.7,3.07H39.4c-0.17-0.36-0.41-1.51-0.64-3
			c-0.27-1.67-0.79-2.29-1.97-2.29h-0.55v5.29h-1.38V29.48z M36.24,35.07h0.59c1.32,0,2.21-0.98,2.21-2.42
			c0-1.4-0.57-2.28-2.06-2.29c-0.28,0-0.55,0.02-0.73,0.07V35.07z"/>
		<path d="M46.64,35.67H43.6v4.56h3.46v1.2h-4.84V29.3h4.62v1.2H43.6v3.99h3.04V35.67z"/>
		<path d="M48.59,29.48c0.52-0.16,1.17-0.23,1.86-0.23c1.27,0,2.18,0.31,2.85,0.91c0.94,0.81,1.64,2.38,1.64,4.92
			c0,2.78-0.68,4.29-1.46,5.12c-0.78,0.89-1.95,1.31-3.34,1.31c-0.56,0-1.15-0.04-1.55-0.12V29.48z M49.97,40.31
			c0.2,0.04,0.4,0.04,0.53,0.04c1.53,0,3.01-1.1,3.01-5.23c0-3.06-0.94-4.74-2.89-4.74c-0.22,0-0.46,0.02-0.65,0.07V40.31z"/>
		<path d="M57.99,29.3v12.14H56.6V29.3H57.99z"/>
		<path d="M64.6,35.67h-3.04v4.56h3.46v1.2h-4.84V29.3h4.62v1.2h-3.24v3.99h3.04V35.67z"/>
		<path d="M66.56,41.43V29.3h1.31l2.23,5.69c0.51,1.3,1.13,2.91,1.55,4.22h0.04c-0.11-1.91-0.17-3.47-0.17-5.57V29.3h1.25v12.14
			h-1.3l-2.31-5.84c-0.49-1.23-1.01-2.6-1.44-4.12h-0.04c0.1,1.62,0.14,3.16,0.14,5.75v4.2H66.56z"/>
		<path d="M76.34,30.54h-2.22V29.3h5.83v1.25h-2.22v10.89h-1.38V30.54z"/>
		<path d="M85.72,35.67h-3.04v4.56h3.46v1.2H81.3V29.3h4.62v1.2h-3.24v3.99h3.04V35.67z"/>
		<path d="M7.52,51.08c0.56-0.14,1.21-0.23,2.01-0.23c1.11,0,2.06,0.27,2.68,0.89c0.59,0.58,0.9,1.46,0.9,2.52
			c0,1.12-0.27,1.86-0.74,2.47c-0.67,0.91-1.79,1.36-2.86,1.36c-0.24,0-0.42,0-0.62-0.02v4.98H7.52V51.08z M8.89,56.9
			c0.16,0.03,0.32,0.04,0.55,0.04c1.36,0,2.27-0.89,2.27-2.6c0-1.25-0.51-2.36-2.05-2.36c-0.32,0-0.58,0.04-0.77,0.09V56.9z"/>
		<path d="M14.7,50.9h1.38v10.96h3.41v1.18H14.7V50.9z"/>
		<path d="M22.34,59.39l-0.8,3.64h-1.34l2.78-12.14h1.53l2.69,12.14h-1.37l-0.8-3.64H22.34z M24.84,58.28l-0.63-3.09
			c-0.18-0.86-0.34-1.86-0.49-2.77h-0.06c-0.14,0.92-0.32,1.96-0.49,2.78l-0.64,3.07H24.84z"/>
		<path d="M34.01,62.82c-0.37,0.19-0.98,0.32-1.74,0.32c-2.36,0-4.06-1.91-4.06-6.03c0-4.79,2.37-6.32,4.29-6.32
			c0.73,0,1.26,0.14,1.51,0.3l-0.31,1.18c-0.3-0.14-0.59-0.26-1.22-0.26c-1.29,0-2.82,1.27-2.82,4.96c0,3.72,1.37,4.93,2.86,4.93
			c0.52,0,0.98-0.12,1.27-0.26L34.01,62.82z"/>
		<path d="M39.85,57.27h-3.04v4.56h3.46v1.2h-4.84V50.9h4.62v1.2h-3.24v3.99h3.04V57.27z"/>
		<path d="M43.19,50.9v5.21h3.4V50.9h1.38v12.14h-1.38v-5.67h-3.4v5.67h-1.38V50.9H43.19z"/>
		<path d="M56.5,56.88c0,4.54-1.56,6.29-3.51,6.29c-2.02,0-3.37-2.15-3.37-6.22c0-4.03,1.45-6.2,3.57-6.2
			C55.26,50.75,56.5,53,56.5,56.88z M51.06,56.96c0,2.5,0.48,5,2.03,5c1.56,0,1.97-2.65,1.97-5.03c0-2.26-0.41-4.96-1.99-4.96
			C51.55,51.97,51.06,54.5,51.06,56.96z"/>
		<path d="M58.17,50.9h1.38v10.96h3.41v1.18h-4.79V50.9z"/>
		<path d="M64.36,51.08c0.52-0.16,1.17-0.23,1.86-0.23c1.27,0,2.18,0.32,2.85,0.91c0.94,0.81,1.64,2.38,1.64,4.92
			c0,2.78-0.68,4.29-1.46,5.12c-0.78,0.89-1.95,1.31-3.34,1.31c-0.56,0-1.15-0.04-1.55-0.12V51.08z M65.74,61.91
			c0.2,0.04,0.4,0.04,0.53,0.04c1.53,0,3-1.1,3-5.23c0-3.06-0.94-4.74-2.89-4.74c-0.22,0-0.46,0.03-0.65,0.07V61.91z"/>
		<path d="M76.79,57.27h-3.04v4.56h3.46v1.2h-4.84V50.9h4.62v1.2h-3.24v3.99h3.04V57.27z"/>
		<path d="M78.74,51.08c0.58-0.17,1.31-0.23,2-0.23c1.19,0,2.09,0.25,2.73,0.87c0.6,0.6,0.86,1.41,0.86,2.37
			c0,1.55-0.73,2.56-1.95,3.13v0.04c0.89,0.27,1.36,1.13,1.63,2.72c0.28,1.66,0.53,2.69,0.7,3.07h-1.42c-0.17-0.36-0.41-1.51-0.64-3
			c-0.27-1.67-0.79-2.29-1.97-2.29h-0.55v5.29h-1.38V51.08z M80.12,56.67h0.59c1.32,0,2.21-0.98,2.21-2.42
			c0-1.4-0.57-2.28-2.06-2.29c-0.28,0-0.55,0.02-0.73,0.07V56.67z"/>
		<path d="M88.25,50.68v14.37h-2.67v-0.96h1.54V51.64h-1.54v-0.96H88.25z"/>
	</g>
</g>
</svg>
